REM DIRINDEX 1\2\6,1\2\7,1\2\8,1\3\9,1\3\10,1\3\11,1\4\12,1\4\13,1\4\14,1\5\15,1\5\16,1\5\17,1\5\18
REM DIRNAME folder01,folder02,folder03,folder04,folder05,folder06,folder07,folder08,folder09,folder10,folder11,folder12,folder13,folder14,folder15,folder16,folder17,folder18
TITLE ""
FILE "" MP3
  TRACK 01 AUDIO
    TITLE "13:cjc019_2660"
    INDEX 01 00:00:00
  TRACK 02 AUDIO
    TITLE "0:"
    INDEX 01 00:00:74
  TRACK 03 AUDIO
    TITLE "14:cjc019_2661"
    INDEX 01 00:01:60
  TRACK 04 AUDIO
    TITLE "0:"
    INDEX 01 00:02:65
  TRACK 05 AUDIO
    TITLE "13:cjc019_2662"
    INDEX 01 00:03:41
  TRACK 06 AUDIO
    TITLE "0:"
    INDEX 01 00:04:52
  TRACK 07 AUDIO
    TITLE "14:cjc019_2663"
    INDEX 01 00:05:32
  TRACK 08 AUDIO
    TITLE "0:"
    INDEX 01 00:07:47
  TRACK 09 AUDIO
    TITLE "13:cjc019_2664"
    INDEX 01 00:08:32
  TRACK 10 AUDIO
    TITLE "0:"
    INDEX 01 00:09:44
  TRACK 11 AUDIO
    TITLE "14:cjc019_2665"
    INDEX 01 00:10:23
  TRACK 12 AUDIO
    TITLE "0:"
    INDEX 01 00:11:35
  TRACK 13 AUDIO
    TITLE "13:cjc019_2666"
    INDEX 01 00:12:12
  TRACK 14 AUDIO
    TITLE "0:"
    INDEX 01 00:13:28
  TRACK 15 AUDIO
    TITLE "14:cjc019_2667"
    INDEX 01 00:14:17
  TRACK 16 AUDIO
    TITLE "0:"
    INDEX 01 00:18:17
  TRACK 17 AUDIO
    TITLE "13:cjc019_2668"
    INDEX 01 00:18:70
  TRACK 18 AUDIO
    TITLE "0:"
    INDEX 01 00:20:10
  TRACK 19 AUDIO
    TITLE "14:cjc019_2669"
    INDEX 01 00:20:73
  TRACK 20 AUDIO
    TITLE "0:"
    INDEX 01 00:21:68
  TRACK 21 AUDIO
    TITLE "13:cjc019_2670"
    INDEX 01 00:22:54
  TRACK 22 AUDIO
    TITLE "0:"
    INDEX 01 00:24:25
  TRACK 23 AUDIO
    TITLE "14:cjc019_2671"
    INDEX 01 00:25:07
  TRACK 24 AUDIO
    TITLE "0:"
    INDEX 01 00:29:62
  TRACK 25 AUDIO
    TITLE "13:cjc019_2672"
    INDEX 01 00:30:40
  TRACK 26 AUDIO
    TITLE "0:"
    INDEX 01 00:31:59
  TRACK 27 AUDIO
    TITLE "14:cjc019_2673"
    INDEX 01 00:32:45
  TRACK 28 AUDIO
    TITLE "0:"
    INDEX 01 00:36:31
  TRACK 29 AUDIO
    TITLE "13:cjc019_2674"
    INDEX 01 00:37:10
  TRACK 30 AUDIO
    TITLE "0:"
    INDEX 01 00:38:16
  TRACK 31 AUDIO
    TITLE "14:cjc019_2675"
    INDEX 01 00:39:02
  TRACK 32 AUDIO
    TITLE "0:"
    INDEX 01 00:40:23
  TRACK 33 AUDIO
    TITLE "13:cjc019_2676"
    INDEX 01 00:41:00
  TRACK 34 AUDIO
    TITLE "0:"
    INDEX 01 00:42:21
  TRACK 35 AUDIO
    TITLE "14:cjc019_2677"
    INDEX 01 00:42:65
  TRACK 36 AUDIO
    TITLE "0:"
    INDEX 01 00:44:26
  TRACK 37 AUDIO
    TITLE "13:cjc019_2678"
    INDEX 01 00:45:08
  TRACK 38 AUDIO
    TITLE "0:"
    INDEX 01 00:46:29
  TRACK 39 AUDIO
    TITLE "14:cjc019_2679"
    INDEX 01 00:47:03
  TRACK 40 AUDIO
    TITLE "0:"
    INDEX 01 00:52:28
  TRACK 41 AUDIO
    TITLE "13:cjc019_2680"
    INDEX 01 00:53:04
  TRACK 42 AUDIO
    TITLE "0:"
    INDEX 01 00:54:32
  TRACK 43 AUDIO
    TITLE "14:cjc019_2681"
    INDEX 01 00:55:12
  TRACK 44 AUDIO
    TITLE "0:"
    INDEX 01 00:57:50
  TRACK 45 AUDIO
    TITLE "13:cjc019_2682"
    INDEX 01 00:58:32
  TRACK 46 AUDIO
    TITLE "0:"
    INDEX 01 00:59:47
  TRACK 47 AUDIO
    TITLE "14:cjc019_2683"
    INDEX 01 01:00:35
  TRACK 48 AUDIO
    TITLE "0:"
    INDEX 01 01:02:34
  TRACK 49 AUDIO
    TITLE "13:cjc019_2684"
    INDEX 01 01:03:16
  TRACK 50 AUDIO
    TITLE "0:"
    INDEX 01 01:04:58
  TRACK 51 AUDIO
    TITLE "14:cjc019_2685"
    INDEX 01 01:05:34
  TRACK 52 AUDIO
    TITLE "0:"
    INDEX 01 01:07:59
  TRACK 53 AUDIO
    TITLE "13:cjc019_2686"
    INDEX 01 01:08:35
  TRACK 54 AUDIO
    TITLE "0:"
    INDEX 01 01:09:73
  TRACK 55 AUDIO
    TITLE "14:cjc019_2687"
    INDEX 01 01:10:57
  TRACK 56 AUDIO
    TITLE "0:"
    INDEX 01 01:11:68
  TRACK 57 AUDIO
    TITLE "13:cjc019_2688"
    INDEX 01 01:12:48
  TRACK 58 AUDIO
    TITLE "0:"
    INDEX 01 01:14:10
  TRACK 59 AUDIO
    TITLE "14:cjc019_2689"
    INDEX 01 01:14:70
  TRACK 60 AUDIO
    TITLE "0:"
    INDEX 01 01:16:01
